<svg xmlns="http://www.w3.org/2000/svg" version="1.1" xmlns:xlink="http://www.w3.org/1999/xlink" xmlns:svgjs="http://svgjs.dev/svgjs" width="2000" height="313" viewBox="0 0 2000 313"><g transform="matrix(1,0,0,1,-1.2121212121212466,0.6253715443368719)"><svg viewBox="0 0 396 62" data-background-color="#000000" preserveAspectRatio="xMidYMid meet" height="313" width="2000" xmlns="http://www.w3.org/2000/svg" xmlns:xlink="http://www.w3.org/1999/xlink"><g id="tight-bounds" transform="matrix(1,0,0,1,0.2400000000000091,-0.12387551357471693)"><svg viewBox="0 0 395.52 62.24775102714941" height="62.24775102714941" width="395.52"><g><svg viewBox="0 0 484.864160684118 76.30891878097883" height="62.24775102714941" width="395.52"><g transform="matrix(1,0,0,1,89.34416068411802,10.546312219368275)"><svg viewBox="0 0 395.52 55.21629434224228" height="55.21629434224228" width="395.52"><g id="textblocktransform"><svg viewBox="0 0 395.52 55.21629434224228" height="55.21629434224228" width="395.52" id="textblock"><g><svg viewBox="0 0 395.52 55.21629434224228" height="55.21629434224228" width="395.52"><g transform="matrix(1,0,0,1,0,0)"><svg width="395.52" viewBox="1.56 -35.99 351.66 49.1" height="55.21629434224228" data-palette-color="#fffdfd"><path d="M27.47-33.89L35.08-35.94Q35.21-35.96 35.31-35.97 35.42-35.99 35.52-35.99L35.52-35.99Q35.96-35.99 36.23-35.71 36.5-35.42 36.6-34.72L36.6-34.72Q36.65-34.28 36.76-33.48 36.87-32.69 37-31.73 37.13-30.76 37.29-29.74 37.45-28.71 37.57-27.84 37.7-26.98 37.79-26.35 37.89-25.73 37.92-25.56L37.92-25.56Q38.45-21.24 38.87-18.63 39.28-16.02 39.45-14.77L39.45-14.77 41.09-1.56 40.84-0.81Q40.8-0.63 40.21-0.39 39.62-0.15 38.79 0.13 37.96 0.42 36.99 0.68 36.01 0.95 35.18 1.17 34.35 1.39 33.78 1.53 33.2 1.66 33.18 1.66L33.18 1.66Q32.59 1.66 32.25 0.81 31.91-0.05 31.69-1.37 31.47-2.69 31.34-4.25 31.2-5.81 31.03-7.25L31.03-7.25Q30.88-8.45 30.76-9.67 30.64-10.89 30.49-12.16L30.49-12.16 29.54-19.29 20.48-2.71Q20.07-2.12 19.65-1.87 19.24-1.61 18.87-1.61L18.87-1.61Q18.33-1.61 18.03-1.93 17.72-2.25 17.6-2.71L17.6-2.71Q17.14-4.25 16.81-5.31 16.48-6.37 16.2-7.25 15.92-8.13 15.67-8.96 15.43-9.79 15.12-10.88 14.82-11.96 14.44-13.44 14.06-14.92 13.53-17.07L13.53-17.07 12.77-13.55 9.25 1.37Q9.18 1.66 8.64 1.66L8.64 1.66Q8.13 1.66 7.24 1.46 6.35 1.27 5.38 0.99 4.42 0.71 3.5 0.4 2.59 0.1 2.05-0.15L2.05-0.15Q1.93-0.2 1.75-0.38 1.56-0.56 1.56-0.95L1.56-0.95Q1.56-1.05 1.64-1.37 1.71-1.68 1.82-2.11 1.93-2.54 2.06-2.98 2.2-3.42 2.32-3.76L2.32-3.76Q2.64-4.59 2.89-5.71 3.15-6.84 3.37-7.98 3.59-9.13 3.77-10.18 3.96-11.23 4.13-11.94L4.13-11.94 7.13-25.95 8.03-29.91Q8.2-30.66 8.36-31.38 8.52-32.1 8.64-32.69 8.76-33.28 8.84-33.64 8.91-34.01 8.91-34.06L8.91-34.06 15.01-35.94Q15.36-35.94 15.61-35.88 15.87-35.82 15.94-35.47L15.94-35.47 20.8-19.85 27.47-33.89ZM71.87-27.66L69.36-4.91Q69.33-4.81 69.33-4.72 69.33-4.64 69.33-4.57L69.33-4.57Q69.33-3.96 69.53-3.55 69.72-3.15 69.96-2.89 70.19-2.64 70.38-2.48 70.58-2.32 70.58-2.2L70.58-2.2Q70.58-1.86 69.85-1.56L69.85-1.56 63.28 1.25Q63.25 1.27 63.11 1.27L63.11 1.27Q62.91 1.27 62.72 0.93 62.52 0.59 62.34 0.06 62.16-0.46 62-1.06 61.84-1.66 61.72-2.17L61.72-2.17Q60.18-0.39 58.4 0.44 56.61 1.27 54.86 1.27L54.86 1.27Q52.81 1.27 50.85 0.37 48.9-0.54 47.39-2.21 45.87-3.88 44.96-6.25 44.04-8.62 44.04-11.57L44.04-11.57Q44.04-15.06 45.05-17.94 46.07-20.83 47.8-22.9 49.53-24.98 51.84-26.11 54.15-27.25 56.74-27.25L56.74-27.25Q58.57-27.25 60.2-26.5 61.84-25.76 63.3-24.58L63.3-24.58Q63.45-25.32 63.47-25.76 63.5-26.2 63.58-26.44 63.67-26.68 63.91-26.77 64.16-26.86 64.72-26.9L64.72-26.9Q66.48-27.15 68.22-27.36 69.97-27.56 71.87-27.66L71.87-27.66ZM61.03-6.88L62.06-14.11Q62.3-15.5 62.39-16.74 62.47-17.97 62.52-18.99L62.52-18.99Q62.13-19.29 61.68-19.6 61.23-19.92 60.7-20.2 60.18-20.48 59.6-20.65 59.03-20.83 58.4-20.83L58.4-20.83Q57.08-20.83 56.19-19.97 55.3-19.12 54.75-17.87 54.2-16.63 53.96-15.23 53.73-13.84 53.73-12.77L53.73-12.77Q53.73-8.91 54.75-7.12 55.76-5.32 57.57-5.32L57.57-5.32Q58.3-5.32 59.2-5.74 60.1-6.15 61.03-6.88L61.03-6.88ZM101.09-0.78L95.16 0.88Q94.89 0.95 94.45 1.11 94.01 1.27 93.6 1.27L93.6 1.27Q93.26 1.27 93 1.1 92.74 0.93 92.74 0.51L92.74 0.51 92.74 0.37Q92.89-0.95 92.99-1.87 93.09-2.78 93.17-3.53 93.26-4.27 93.32-5.02 93.38-5.76 93.48-6.75 93.57-7.74 93.71-9.09 93.84-10.45 94.04-12.48L94.04-12.48Q94.16-13.72 94.26-15.01 94.36-16.31 94.36-17.41L94.36-17.41Q94.36-18.14 94.25-18.76 94.14-19.38 93.85-19.84 93.57-20.29 93.09-20.53 92.6-20.78 91.84-20.78L91.84-20.78Q91.28-20.78 90.29-20.53 89.3-20.29 88.33-19.73 87.35-19.17 86.59-18.25 85.83-17.33 85.74-15.99L85.74-15.99Q85.59-14.18 85.47-12.9 85.35-11.62 85.25-10.73 85.15-9.84 85.09-9.28 85.03-8.72 85-8.33L85-8.33Q84.98-8.23 84.93-7.79 84.88-7.35 84.82-6.74 84.76-6.13 84.7-5.44 84.64-4.76 84.58-4.15 84.52-3.54 84.48-3.1 84.44-2.66 84.44-2.56L84.44-2.56Q84.44-2.37 84.46-2.23 84.47-2.1 84.47-1.98L84.47-1.98Q84.47-1.78 84.28-1.65 84.1-1.51 83.47-1.34L83.47-1.34 77 0.88Q76.73 0.98 76.29 1.12 75.85 1.27 75.43 1.27L75.43 1.27Q75.09 1.27 74.84 1.1 74.58 0.93 74.58 0.51L74.58 0.51 76.8-24.44Q76.87-25.24 76.98-25.55 77.09-25.85 77.53-25.95L77.53-25.95Q79.76-26.39 82.1-26.84 84.44-27.29 86.66-28L86.66-28Q86.86-28 86.9-27.94 86.93-27.88 86.93-27.76L86.93-27.76Q86.93-27.71 86.92-27.61 86.91-27.51 86.85-27.17 86.79-26.83 86.68-26.14 86.57-25.44 86.37-24.19L86.37-24.19Q88.06-25.17 89.53-25.77 91.01-26.37 92.32-26.7 93.62-27.03 94.77-27.14 95.92-27.25 96.92-27.25L96.92-27.25Q100.36-27.25 101.92-25.16 103.49-23.07 103.49-18.9L103.49-18.9Q103.49-18.31 103.46-17.69 103.44-17.07 103.36-16.41L103.36-16.41 102.24-5.91Q102.12-4.88 102.09-4.02 102.07-3.15 102.07-2L102.07-2Q102.07-1.81 102.08-1.67 102.09-1.54 102.09-1.44L102.09-1.44Q102.09-1.22 101.91-1.1 101.73-0.98 101.09-0.78L101.09-0.78ZM124.94-17.04L124.97-17.41Q124.72-17.97 124.3-18.55 123.87-19.14 123.31-19.63 122.75-20.12 122.09-20.42 121.43-20.73 120.7-20.73L120.7-20.73Q119.69-20.73 118.82-19.9 117.94-19.07 117.28-17.69 116.62-16.31 116.24-14.54 115.86-12.77 115.86-10.86L115.86-10.86Q115.86-9.69 116.07-8.65 116.28-7.62 116.72-6.84 117.16-6.05 117.85-5.59 118.55-5.13 119.52-5.13L119.52-5.13Q120.99-5.13 122.21-6.04 123.43-6.96 124.28-8.42L124.28-8.42Q124.31-8.94 124.36-9.64 124.41-10.35 124.48-11.36 124.55-12.38 124.66-13.76 124.77-15.14 124.94-17.04L124.94-17.04ZM135.56-25.71L133.05-2.66Q132.81-0.24 131.95 1.86 131.1 3.96 129.79 5.7 128.48 7.45 126.81 8.83 125.14 10.21 123.27 11.16 121.4 12.11 119.43 12.61 117.45 13.11 115.52 13.11L115.52 13.11Q114.49 13.11 113.42 13.04 112.35 12.96 111.32 12.76 110.3 12.55 109.37 12.17 108.44 11.79 107.71 11.21L107.71 11.21 107.71 11.18Q107.71 11.06 107.89 10.33 108.07 9.59 108.33 8.61 108.59 7.62 108.87 6.57 109.15 5.52 109.34 4.76L109.34 4.76Q109.44 4.42 109.54 4.3 109.64 4.17 109.76 4.17L109.76 4.17Q109.9 4.17 109.93 4.2L109.93 4.2Q110.64 4.66 111.26 4.97 111.88 5.27 112.58 5.46 113.27 5.64 114.1 5.71 114.93 5.79 116.03 5.79L116.03 5.79Q117.74 5.79 119.06 5.13 120.38 4.47 121.33 3.42 122.28 2.37 122.86 1.11 123.43-0.15 123.65-1.37L123.65-1.37Q121.89-0.2 120.09 0.54 118.28 1.27 116.45 1.27L116.45 1.27Q113.93 1.27 112.1 0.26 110.27-0.76 109.07-2.47 107.88-4.17 107.3-6.38 106.73-8.59 106.73-11.01L106.73-11.01Q106.73-12.92 107.08-14.86 107.44-16.8 108.13-18.6 108.83-20.41 109.86-21.98 110.88-23.56 112.22-24.73 113.57-25.9 115.2-26.57 116.84-27.25 118.77-27.25L118.77-27.25Q120.87-27.25 122.66-26.32 124.46-25.39 125.92-24.02L125.92-24.02Q125.97-24.46 125.99-24.72 126.02-24.98 126.12-25.12 126.21-25.27 126.45-25.34 126.68-25.42 127.12-25.51L127.12-25.51Q127.39-25.56 128.09-25.72 128.8-25.88 129.78-26.1 130.75-26.32 131.93-26.56 133.1-26.81 134.29-27.08L134.29-27.08Q134.59-27.15 134.83-27.15L134.83-27.15Q135.59-27.15 135.59-26.17L135.59-26.17Q135.59-26.05 135.59-25.94 135.59-25.83 135.56-25.71L135.56-25.71ZM166.23-27.66L163.71-4.91Q163.69-4.81 163.69-4.72 163.69-4.64 163.69-4.57L163.69-4.57Q163.69-3.96 163.88-3.55 164.08-3.15 164.31-2.89 164.54-2.64 164.74-2.48 164.93-2.32 164.93-2.2L164.93-2.2Q164.93-1.86 164.2-1.56L164.2-1.56 157.63 1.25Q157.61 1.27 157.46 1.27L157.46 1.27Q157.27 1.27 157.07 0.93 156.87 0.59 156.69 0.06 156.51-0.46 156.35-1.06 156.19-1.66 156.07-2.17L156.07-2.17Q154.53-0.39 152.75 0.44 150.97 1.27 149.21 1.27L149.21 1.27Q147.16 1.27 145.2 0.37 143.25-0.54 141.74-2.21 140.22-3.88 139.31-6.25 138.39-8.62 138.39-11.57L138.39-11.57Q138.39-15.06 139.41-17.94 140.42-20.83 142.15-22.9 143.89-24.98 146.19-26.11 148.5-27.25 151.09-27.25L151.09-27.25Q152.92-27.25 154.56-26.5 156.19-25.76 157.66-24.58L157.66-24.58Q157.8-25.32 157.83-25.76 157.85-26.2 157.94-26.44 158.02-26.68 158.27-26.77 158.51-26.86 159.07-26.9L159.07-26.9Q160.83-27.15 162.58-27.36 164.32-27.56 166.23-27.66L166.23-27.66ZM155.39-6.88L156.41-14.11Q156.66-15.5 156.74-16.74 156.83-17.97 156.87-18.99L156.87-18.99Q156.48-19.29 156.03-19.6 155.58-19.92 155.06-20.2 154.53-20.48 153.96-20.65 153.38-20.83 152.75-20.83L152.75-20.83Q151.43-20.83 150.54-19.97 149.65-19.12 149.1-17.87 148.55-16.63 148.32-15.23 148.09-13.84 148.09-12.77L148.09-12.77Q148.09-8.91 149.1-7.12 150.11-5.32 151.92-5.32L151.92-5.32Q152.65-5.32 153.55-5.74 154.46-6.15 155.39-6.88L155.39-6.88ZM193.22-33.89L200.84-35.94Q200.96-35.96 201.07-35.97 201.18-35.99 201.28-35.99L201.28-35.99Q201.72-35.99 201.99-35.71 202.26-35.42 202.36-34.72L202.36-34.72Q202.4-34.28 202.51-33.48 202.62-32.69 202.76-31.73 202.89-30.76 203.05-29.74 203.21-28.71 203.33-27.84 203.45-26.98 203.55-26.35 203.65-25.73 203.67-25.56L203.67-25.56Q204.21-21.24 204.63-18.63 205.04-16.02 205.21-14.77L205.21-14.77 206.85-1.56 206.6-0.81Q206.55-0.63 205.97-0.39 205.38-0.15 204.55 0.13 203.72 0.42 202.75 0.68 201.77 0.95 200.94 1.17 200.11 1.39 199.54 1.53 198.96 1.66 198.94 1.66L198.94 1.66Q198.35 1.66 198.01 0.81 197.67-0.05 197.45-1.37 197.23-2.69 197.09-4.25 196.96-5.81 196.79-7.25L196.79-7.25Q196.64-8.45 196.52-9.67 196.4-10.89 196.25-12.16L196.25-12.16 195.3-19.29 186.24-2.71Q185.83-2.12 185.41-1.87 185-1.61 184.63-1.61L184.63-1.61Q184.09-1.61 183.79-1.93 183.48-2.25 183.36-2.71L183.36-2.71Q182.9-4.25 182.57-5.31 182.24-6.37 181.96-7.25 181.68-8.13 181.43-8.96 181.19-9.79 180.88-10.88 180.58-11.96 180.2-13.44 179.82-14.92 179.28-17.07L179.28-17.07 178.53-13.55 175.01 1.37Q174.94 1.66 174.4 1.66L174.4 1.66Q173.89 1.66 173 1.46 172.11 1.27 171.14 0.99 170.18 0.71 169.26 0.4 168.35 0.1 167.81-0.15L167.81-0.15Q167.69-0.2 167.5-0.38 167.32-0.56 167.32-0.95L167.32-0.95Q167.32-1.05 167.39-1.37 167.47-1.68 167.58-2.11 167.69-2.54 167.82-2.98 167.96-3.42 168.08-3.76L168.08-3.76Q168.4-4.59 168.65-5.71 168.91-6.84 169.13-7.98 169.35-9.13 169.53-10.18 169.71-11.23 169.88-11.94L169.88-11.94 172.89-25.95 173.79-29.91Q173.96-30.66 174.12-31.38 174.28-32.1 174.4-32.69 174.52-33.28 174.6-33.64 174.67-34.01 174.67-34.06L174.67-34.06 180.77-35.94Q181.12-35.94 181.37-35.88 181.63-35.82 181.7-35.47L181.7-35.47 186.56-19.85 193.22-33.89ZM237.63-27.66L235.12-4.91Q235.09-4.81 235.09-4.72 235.09-4.64 235.09-4.57L235.09-4.57Q235.09-3.96 235.29-3.55 235.48-3.15 235.71-2.89 235.95-2.64 236.14-2.48 236.34-2.32 236.34-2.2L236.34-2.2Q236.34-1.86 235.61-1.56L235.61-1.56 229.04 1.25Q229.01 1.27 228.87 1.27L228.87 1.27Q228.67 1.27 228.48 0.93 228.28 0.59 228.1 0.06 227.91-0.46 227.76-1.06 227.6-1.66 227.48-2.17L227.48-2.17Q225.94-0.39 224.15 0.44 222.37 1.27 220.61 1.27L220.61 1.27Q218.56 1.27 216.61 0.37 214.66-0.54 213.14-2.21 211.63-3.88 210.71-6.25 209.8-8.62 209.8-11.57L209.8-11.57Q209.8-15.06 210.81-17.94 211.83-20.83 213.56-22.9 215.29-24.98 217.6-26.11 219.91-27.25 222.49-27.25L222.49-27.25Q224.33-27.25 225.96-26.5 227.6-25.76 229.06-24.58L229.06-24.58Q229.21-25.32 229.23-25.76 229.26-26.2 229.34-26.44 229.43-26.68 229.67-26.77 229.92-26.86 230.48-26.9L230.48-26.9Q232.24-27.15 233.98-27.36 235.73-27.56 237.63-27.66L237.63-27.66ZM226.79-6.88L227.82-14.11Q228.06-15.5 228.15-16.74 228.23-17.97 228.28-18.99L228.28-18.99Q227.89-19.29 227.44-19.6 226.99-19.92 226.46-20.2 225.94-20.48 225.36-20.65 224.79-20.83 224.15-20.83L224.15-20.83Q222.84-20.83 221.95-19.97 221.05-19.12 220.51-17.87 219.96-16.63 219.72-15.23 219.49-13.84 219.49-12.77L219.49-12.77Q219.49-8.91 220.51-7.12 221.52-5.32 223.32-5.32L223.32-5.32Q224.06-5.32 224.96-5.74 225.86-6.15 226.79-6.88L226.79-6.88ZM258.43-17.04L258.45-17.41Q258.21-17.97 257.78-18.55 257.36-19.14 256.79-19.63 256.23-20.12 255.57-20.42 254.91-20.73 254.18-20.73L254.18-20.73Q253.18-20.73 252.3-19.9 251.42-19.07 250.76-17.69 250.1-16.31 249.73-14.54 249.35-12.77 249.35-10.86L249.35-10.86Q249.35-9.69 249.56-8.65 249.76-7.62 250.2-6.84 250.64-6.05 251.34-5.59 252.03-5.13 253.01-5.13L253.01-5.13Q254.47-5.13 255.7-6.04 256.92-6.96 257.77-8.42L257.77-8.42Q257.8-8.94 257.84-9.64 257.89-10.35 257.97-11.36 258.04-12.38 258.15-13.76 258.26-15.14 258.43-17.04L258.43-17.04ZM269.05-25.71L266.54-2.66Q266.29-0.24 265.44 1.86 264.58 3.96 263.28 5.7 261.97 7.45 260.3 8.83 258.63 10.21 256.76 11.16 254.89 12.11 252.91 12.61 250.93 13.11 249.01 13.11L249.01 13.11Q247.98 13.11 246.91 13.04 245.83 12.96 244.81 12.76 243.78 12.55 242.85 12.17 241.93 11.79 241.19 11.21L241.19 11.21 241.19 11.18Q241.19 11.06 241.38 10.33 241.56 9.59 241.82 8.61 242.07 7.62 242.35 6.57 242.63 5.52 242.83 4.76L242.83 4.76Q242.93 4.42 243.02 4.3 243.12 4.17 243.24 4.17L243.24 4.17Q243.39 4.17 243.42 4.2L243.42 4.2Q244.12 4.66 244.75 4.97 245.37 5.27 246.06 5.46 246.76 5.64 247.59 5.71 248.42 5.79 249.52 5.79L249.52 5.79Q251.23 5.79 252.55 5.13 253.86 4.47 254.82 3.42 255.77 2.37 256.34 1.11 256.92-0.15 257.14-1.37L257.14-1.37Q255.38-0.2 253.57 0.54 251.76 1.27 249.93 1.27L249.93 1.27Q247.42 1.27 245.59 0.26 243.76-0.76 242.56-2.47 241.36-4.17 240.79-6.38 240.22-8.59 240.22-11.01L240.22-11.01Q240.22-12.92 240.57-14.86 240.92-16.8 241.62-18.6 242.32-20.41 243.34-21.98 244.37-23.56 245.71-24.73 247.05-25.9 248.69-26.57 250.32-27.25 252.25-27.25L252.25-27.25Q254.35-27.25 256.15-26.32 257.94-25.39 259.41-24.02L259.41-24.02Q259.46-24.46 259.48-24.72 259.5-24.98 259.6-25.12 259.7-25.27 259.93-25.34 260.16-25.42 260.6-25.51L260.6-25.51Q260.87-25.56 261.58-25.72 262.29-25.88 263.26-26.1 264.24-26.32 265.41-26.56 266.58-26.81 267.78-27.08L267.78-27.08Q268.07-27.15 268.32-27.15L268.32-27.15Q269.07-27.15 269.07-26.17L269.07-26.17Q269.07-26.05 269.07-25.94 269.07-25.83 269.05-25.71L269.05-25.71ZM298.47-0.78L292.53 0.88Q292.27 0.95 291.83 1.11 291.39 1.27 290.97 1.27L290.97 1.27Q290.63 1.27 290.37 1.1 290.12 0.93 290.12 0.51L290.12 0.51 290.12 0.37Q290.26-0.95 290.36-1.87 290.46-2.78 290.54-3.53 290.63-4.27 290.69-5.02 290.75-5.76 290.85-6.75 290.95-7.74 291.08-9.09 291.22-10.45 291.41-12.48L291.41-12.48Q291.53-13.72 291.63-15.01 291.73-16.31 291.73-17.41L291.73-17.41Q291.73-18.14 291.62-18.76 291.51-19.38 291.23-19.84 290.95-20.29 290.46-20.53 289.97-20.78 289.21-20.78L289.21-20.78Q288.65-20.78 287.66-20.53 286.67-20.29 285.7-19.73 284.72-19.17 283.96-18.25 283.21-17.33 283.11-15.99L283.11-15.99Q282.96-14.18 282.84-12.9 282.72-11.62 282.62-10.73 282.52-9.84 282.46-9.28 282.4-8.72 282.38-8.33L282.38-8.33Q282.35-8.23 282.3-7.79 282.26-7.35 282.19-6.74 282.13-6.13 282.07-5.44 282.01-4.76 281.95-4.15 281.89-3.54 281.85-3.1 281.82-2.66 281.82-2.56L281.82-2.56Q281.82-2.37 281.83-2.23 281.84-2.1 281.84-1.98L281.84-1.98Q281.84-1.78 281.66-1.65 281.47-1.51 280.84-1.34L280.84-1.34 274.37 0.88Q274.1 0.98 273.66 1.12 273.22 1.27 272.81 1.27L272.81 1.27Q272.47 1.27 272.21 1.1 271.95 0.93 271.95 0.51L271.95 0.51 274.17-24.44Q274.25-25.24 274.36-25.55 274.47-25.85 274.91-25.95L274.91-25.95Q277.13-26.39 279.47-26.84 281.82-27.29 284.04-28L284.04-28Q284.23-28 284.27-27.94 284.31-27.88 284.31-27.76L284.31-27.76Q284.31-27.71 284.29-27.61 284.28-27.51 284.22-27.17 284.16-26.83 284.05-26.14 283.94-25.44 283.74-24.19L283.74-24.19Q285.43-25.17 286.91-25.77 288.38-26.37 289.69-26.7 291-27.03 292.14-27.14 293.29-27.25 294.29-27.25L294.29-27.25Q297.73-27.25 299.3-25.16 300.86-23.07 300.86-18.9L300.86-18.9Q300.86-18.31 300.83-17.69 300.81-17.07 300.74-16.41L300.74-16.41 299.61-5.91Q299.49-4.88 299.47-4.02 299.44-3.15 299.44-2L299.44-2Q299.44-1.81 299.46-1.67 299.47-1.54 299.47-1.44L299.47-1.44Q299.47-1.22 299.28-1.1 299.1-0.98 298.47-0.78L298.47-0.78ZM319.09-27.25L319.09-27.25Q321.41-27.25 323.31-26.38 325.2-25.51 326.55-24.13 327.91-22.75 328.64-21.04 329.37-19.34 329.37-17.63L329.37-17.63Q329.37-16.11 328.44-14.59 327.52-13.06 325.84-11.84 324.17-10.62 321.83-9.86 319.48-9.11 316.68-9.11L316.68-9.11Q315.21-9.11 313.6-9.4L313.6-9.4Q313.7-8.35 314.21-7.59 314.72-6.84 315.5-6.35 316.29-5.86 317.27-5.63 318.26-5.4 319.31-5.4L319.31-5.4Q320.49-5.4 321.57-5.6 322.66-5.81 323.66-6.15 324.66-6.49 325.59-6.91 326.52-7.32 327.35-7.74L327.35-7.74Q327.57-7.79 327.72-7.82 327.88-7.86 328.03-7.86L328.03-7.86Q328.03-7.86 328.02-7.47 328-7.08 328-6.37 328-5.66 327.99-4.66 327.98-3.66 327.96-2.44L327.96-2.44Q328.03-2.32 328.05-2.2 328.08-2.08 328.08-2L328.08-2Q328.08-1.71 327.54-1.37 327-1.03 326.14-0.66 325.27-0.29 324.16 0.05 323.05 0.39 321.9 0.67 320.75 0.95 319.68 1.11 318.61 1.27 317.8 1.27L317.8 1.27Q315.16 1.27 312.69 0.35 310.21-0.56 308.29-2.27 306.37-3.98 305.23-6.42 304.08-8.86 304.08-11.91L304.08-11.91Q304.08-15.11 305.18-17.91 306.28-20.7 308.27-22.78 310.26-24.85 313.01-26.05 315.77-27.25 319.09-27.25ZM318.8-20.75L318.8-20.75Q317.8-20.75 316.96-20.32 316.12-19.9 315.42-19.1 314.72-18.31 314.21-17.2 313.7-16.09 313.38-14.75L313.38-14.75Q315.9-15.19 317.56-15.67 319.22-16.16 320.22-16.66 321.22-17.16 321.63-17.66 322.05-18.16 322.05-18.63L322.05-18.63Q322.05-19.07 321.72-19.46 321.39-19.85 320.9-20.14 320.41-20.43 319.84-20.59 319.26-20.75 318.8-20.75ZM350.12-18.82L345.58-18.82Q345.24-16.26 344.93-13.71 344.63-11.16 344.56-8.94L344.56-8.94Q344.56-7.98 344.7-7.35 344.85-6.71 345.13-6.35 345.41-5.98 345.8-5.82 346.19-5.66 346.68-5.66L346.68-5.66Q347.46-5.66 348.39-5.9 349.32-6.13 350.24-6.49L350.24-6.49Q350.54-6.62 350.74-6.68 350.95-6.74 351.1-6.74L351.1-6.74Q351.34-6.74 351.43-6.52 351.51-6.3 351.6-5.75 351.68-5.2 351.85-4.27 352.03-3.34 352.42-1.93L352.42-1.93Q352.44-1.81 352.45-1.72 352.47-1.64 352.47-1.56L352.47-1.56Q352.47-1.22 352.21-1.07 351.95-0.93 351.37-0.73L351.37-0.73Q350.37-0.39 349.25-0.04 348.14 0.32 347.06 0.61 345.97 0.9 344.97 1.09 343.97 1.27 343.21 1.27L343.21 1.27Q339.14 1.27 337.27-0.76 335.4-2.78 335.4-6.93L335.4-6.93Q335.4-7.64 335.45-8.39 335.5-9.13 335.57-9.94L335.57-9.94Q335.81-12.38 336-14.56 336.18-16.75 336.38-18.75L336.38-18.75 333.81-18.75Q332.49-18.75 331.91-18.86 331.32-18.97 331.32-19.31L331.32-19.31Q331.32-19.41 331.57-19.84 331.81-20.26 332.19-20.86 332.57-21.46 333.01-22.14 333.45-22.83 333.85-23.43 334.25-24.02 334.55-24.46 334.84-24.9 334.91-25L334.91-25 336.64-25Q336.86-26.86 337-28.11 337.13-29.37 337.22-30.2 337.3-31.03 337.38-31.48 337.45-31.93 337.54-32.15 337.62-32.37 337.76-32.43 337.89-32.5 338.11-32.54L338.11-32.54Q339.21-32.76 340.23-32.95 341.26-33.13 342.28-33.33 343.31-33.52 344.37-33.78 345.43-34.03 346.58-34.38L346.58-34.38Q346.65-34.38 346.68-34.39 346.7-34.4 346.78-34.4L346.78-34.4Q347.07-34.4 347.07-34.2L347.07-34.2 347.07-34.16Q346.95-32.81 346.69-30.42 346.43-28.03 346.12-25L346.12-25 352.66-25Q352.86-25 353.04-24.87 353.22-24.73 353.22-24.41L353.22-24.41Q353.22-24.29 352.93-23.54 352.64-22.78 352.1-21.56L352.1-21.56 351.22-19.58Q351.05-19.21 350.87-19.04 350.68-18.87 350.12-18.82L350.12-18.82Z" opacity="1" transform="matrix(1,0,0,1,0,0)" fill="#ffffff" class="wordmark-text-0" data-fill-palette-color="primary" id="text-0"></path></svg></g></svg></g></svg></g></svg></g><g><svg viewBox="0 0 76.30891878097883 76.30891878097883" height="76.30891878097883" width="76.30891878097883"><g><svg xmlns="http://www.w3.org/2000/svg" xmlns:xlink="http://www.w3.org/1999/xlink" version="1.1" x="0" y="0" viewBox="1 1 46 46" enable-background="new 0 0 48 48" xml:space="preserve" height="76.30891878097883" width="76.30891878097883" class="icon-icon-0" data-fill-palette-color="accent" id="icon-0"><g fill="#fffdfd" data-fill-palette-color="accent"><g fill="#fffdfd" data-fill-palette-color="accent"><polygon fill="#ffffff" points="11.1,34.1 16.5,27.8 15.4,32.6 17.4,32.2 11.7,38.8 13.2,34.3   " data-fill-palette-color="accent"></polygon></g><g fill="#fffdfd" data-fill-palette-color="accent"><path fill="#ffffff" d="M1 36.6L11.4 47 47 11.4 36.6 1 1 36.6zM28 28L11.4 44.7l-8.1-8.1L20 20 28 28z" data-fill-palette-color="accent"></path></g></g></svg></g></svg></g></svg></g><defs></defs></svg><rect width="395.52" height="62.24775102714941" fill="none" stroke="none" visibility="hidden"></rect></g></svg></g></svg>